<?xml version="1.0" encoding="iso-8859-1"?>
<!-- Generator: Adobe Illustrator 16.0.0, SVG Export Plug-In . SVG Version: 6.00 Build 0)  -->
<!DOCTYPE svg PUBLIC "-//W3C//DTD SVG 1.1//EN" "http://www.w3.org/Graphics/SVG/1.1/DTD/svg11.dtd">
<svg version="1.1" id="Capa_1" xmlns="http://www.w3.org/2000/svg" xmlns:xlink="http://www.w3.org/1999/xlink" x="0px" y="0px"
	 width="157.045px" height="157.045px" viewBox="0 0 157.045 157.045" style="enable-background:new 0 0 157.045 157.045;"
	 xml:space="preserve">
<g>
	<path d="M109.954,114.45v-1.783l-3.19-1.659v-17.97l1.183-2.376l-10.997-3.787v-4.603h-2.023V61.814l1.183-2.607l-7.33-3.649
		v-14.21l1.303-2.128l-1.17-0.934v-2.018l-2.737-7.474h-1.527L81.221,12.72l1.058-0.583v-1.91l-2.26-1.292h-1.064V8.307
		c0.527-0.276,0.888-0.817,0.888-1.46c0-0.755-0.505-1.365-1.186-1.565V0h-0.66v5.214c-0.831,0.076-1.468,0.785-1.468,1.625
		c0,0.659,0.376,1.208,0.927,1.482v0.595h-1.076l-2.246,1.31v1.902l1.06,0.591l-3.422,16.076H70.23l-2.721,7.474v2.01l-1.176,0.936
		l1.302,2.126v14.218l-7.341,3.649l1.192,2.607V82.28H59.47v4.61l-11,3.779l1.18,2.385v17.969l-3.198,1.655v1.779H26.16v3.45h1.265
		v39.137h39.433v-18.001c0,0,1.575-11.029,11.671-11.029c10.104,0,11.684,11.029,11.684,11.029v18.001h39.43v-39.12h1.242v-3.467
		h-20.931V114.45z M82.202,104.424h-7.346v-7.827c0,0,0.651-2.769,3.673-2.769c3.027,0,3.673,2.769,3.673,2.769V104.424z
		 M78.529,74.712c-3.597,0-6.51-2.914-6.51-6.5c0-3.603,2.913-6.516,6.51-6.516c3.589,0,6.515,2.913,6.515,6.516
		C85.039,71.799,82.118,74.712,78.529,74.712z M78.529,66.555c-0.909,0-1.657,0.755-1.657,1.657c0,0.919,0.748,1.655,1.657,1.655
		c0.92,0,1.649-0.735,1.649-1.655C80.179,67.303,79.449,66.555,78.529,66.555z"/>
</g>
<g>
</g>
<g>
</g>
<g>
</g>
<g>
</g>
<g>
</g>
<g>
</g>
<g>
</g>
<g>
</g>
<g>
</g>
<g>
</g>
<g>
</g>
<g>
</g>
<g>
</g>
<g>
</g>
<g>
</g>
</svg>
